<?xml version="1.0" standalone="no"?><!DOCTYPE svg PUBLIC "-//W3C//DTD SVG 1.1//EN" "http://www.w3.org/Graphics/SVG/1.1/DTD/svg11.dtd"><svg t="1591620982870" class="icon" viewBox="0 0 1024 1024" version="1.1" xmlns="http://www.w3.org/2000/svg" p-id="7123" xmlns:xlink="http://www.w3.org/1999/xlink" width="200" height="200"><defs><style type="text/css"></style></defs><path d="M923.2 245.6L536.8 23.2c-6.4-4-15.2-5.6-24.8-5.6-9.6 0-18.4 2.4-24.8 5.6l-384 223.2c-13.6 8-23.2 28-23.2 43.2v445.6c0 8.8 1.6 19.2 8 28l854.4-496c-4.8-9.6-12-16.8-19.2-21.6z" fill="#D26383" p-id="7124"></path><path d="M85.6 762.4c4 6.4 9.6 12 15.2 15.2l385.6 223.2c6.4 4 15.2 5.6 24.8 5.6 9.6 0 18.4-2.4 24.8-5.6l384-223.2c13.6-8 23.2-28 23.2-43.2V288.8c0-7.2-0.8-15.2-4.8-22.4l-852.8 496z" fill="#9C033A" p-id="7125"></path><path d="M682.4 608.8C648.8 668 584.8 708 512 708c-108 0-196-88-196-196s88-196 196-196c72.8 0 136.8 40 170.4 100l104-60c-54.4-95.2-156.8-160-274.4-160-174.4 0-316 141.6-316 316s141.6 316 316 316c116.8 0 219.2-64 273.6-158.4l-103.2-60.8z" fill="#FFFFFF" p-id="7126"></path><path d="M656.8 494.4h41.6v-42.4h35.2v42.4H776v35.2h-42.4v41.6h-35.2v-41.6h-41.6v-35.2z m148 0h41.6v-42.4h35.2v42.4h42.4v35.2h-42.4v41.6h-35.2v-41.6h-41.6v-35.2z" fill="#FFFFFF" p-id="7127"></path></svg>