<?xml version="1.0" standalone="no"?><!DOCTYPE svg PUBLIC "-//W3C//DTD SVG 1.1//EN" "http://www.w3.org/Graphics/SVG/1.1/DTD/svg11.dtd"><svg t="1591621015662" class="icon" viewBox="0 0 1024 1024" version="1.1" xmlns="http://www.w3.org/2000/svg" p-id="8012" xmlns:xlink="http://www.w3.org/1999/xlink" width="200" height="200"><defs><style type="text/css"></style></defs><path d="M559.104 17.088L908.8 217.536c31.616 18.112 51.136 51.84 51.136 88.32v409.6a101.76 101.76 0 0 1-50.688 88.064l-349.76 202.816a101.76 101.76 0 0 1-102.72-0.384l-342.784-202.304A101.76 101.76 0 0 1 64 715.968V305.28c0-36.16 19.2-69.632 50.496-87.872L457.28 17.472a101.76 101.76 0 0 1 101.76-0.384z" fill="#A375E6" p-id="8013"></path><path d="M948.48 765.696a90.24 90.24 0 0 1-33.728 34.624L552.192 1010.56c-27.328 15.872-60.8 15.744-88.064-0.32l-355.456-209.792a90.56 90.56 0 0 1-36.608-41.216l427.456-245.568 448.96 252.032z" fill="#7F31F2" p-id="8014"></path><path d="M900.928 246.4c7.36 13.44 59.072 38.144 59.072 54.144v420.16c0 16-4.096 31.488-11.52 44.992-30.08 21.44-179.712-62.592-448.96-252.032l401.408-267.328z" fill="#6247BC" p-id="8015"></path><path d="M778.56 334.848a320 320 0 1 0-8.384 366.272L633.92 615.68a160 160 0 1 1 6.912-198.464l137.728-82.304z" fill="#FFFFFF" p-id="8016"></path><path d="M733.824 536.704l5.504-49.28h-27.008l2.816-39.36h28.608l3.712-33.664h23.296l-3.776 33.664h26.88l3.712-33.664h23.296l-3.776 33.664H832l-2.752 39.424h-16.64l-5.504 49.28h16.576l-2.816 39.36h-18.176l-4.096 36.096h-23.104l4.032-36.096h-26.88l-4.096 36.096h-23.168l4.032-36.096H704l2.752-39.424h27.072z m23.168 0h26.88l5.568-49.28h-26.88l-5.568 49.28z" fill="#FFFFFF" p-id="8017"></path></svg>